{
	"accessors": [
		{
			"bufferView": 0,
			"componentType": 5126,
			"count": 10,
			"max": [
				0.5, 
				2, 
				0
			],
			"min": [
				-0.5, 
				0, 
				0
			],
			"type": "VEC3"
		}, 
		{
			"bufferView": 1,
			"componentType": 5126,
			"count": 10,
			"type": "VEC3"
		}, 
		{
			"bufferView": 2,
			"componentType": 5121,
			"count": 10,
			"type": "VEC4"
		}, 
		{
			"bufferView": 3,
			"componentType": 5126,
			"count": 10,
			"type": "VEC4"
		}, 
		{
			"bufferView": 4,
			"componentType": 5123,
			"count": 24,
			"type": "SCALAR"
		}, 
		{
			"bufferView": 5,
			"componentType": 5126,
			"count": 2,
			"type": "MAT4"
		}, 
		{
			"bufferView": 6,
			"componentType": 5126,
			"count": 2,
			"max": [
				5.5
			],
			"min": [
				0
			],
			"type": "SCALAR"
		}, 
		{
			"bufferView": 7,
			"componentType": 5126,
			"count": 2,
			"type": "VEC3"
		}, 
		{
			"bufferView": 8,
			"componentType": 5126,
			"count": 2,
			"type": "VEC4"
		}, 
		{
			"bufferView": 9,
			"componentType": 5126,
			"count": 2,
			"type": "VEC3"
		}, 
		{
			"bufferView": 10,
			"componentType": 5126,
			"count": 2,
			"type": "VEC3"
		}, 
		{
			"bufferView": 11,
			"componentType": 5126,
			"count": 133,
			"max": [
				5.5
			],
			"min": [
				0
			],
			"type": "SCALAR"
		}, 
		{
			"bufferView": 12,
			"componentType": 5126,
			"count": 133,
			"type": "VEC4"
		}, 
		{
			"bufferView": 13,
			"componentType": 5126,
			"count": 2,
			"type": "VEC3"
		}
	],
	"animations": [
		{
			"channels": [
				{
					"sampler": 0,
					"target": {
						"node": 1,
						"path": "translation"
					}
				}, 
				{
					"sampler": 1,
					"target": {
						"node": 1,
						"path": "rotation"
					}
				}, 
				{
					"sampler": 2,
					"target": {
						"node": 1,
						"path": "scale"
					}
				}, 
				{
					"sampler": 3,
					"target": {
						"node": 0,
						"path": "translation"
					}
				}, 
				{
					"sampler": 4,
					"target": {
						"node": 0,
						"path": "rotation"
					}
				}, 
				{
					"sampler": 5,
					"target": {
						"node": 0,
						"path": "scale"
					}
				}
			],
			"name": "Anim_0",
			"samplers": [
				{
					"input": 6,
					"interpolation": "STEP",
					"output": 7
				}, 
				{
					"input": 6,
					"interpolation": "STEP",
					"output": 8
				}, 
				{
					"input": 6,
					"interpolation": "STEP",
					"output": 9
				}, 
				{
					"input": 6,
					"interpolation": "STEP",
					"output": 10
				}, 
				{
					"input": 11,
					"interpolation": "LINEAR",
					"output": 12
				}, 
				{
					"input": 6,
					"interpolation": "STEP",
					"output": 13
				}
			]
		}
	],
	"asset": {
		"generator": "Khronos glTF Blender I/O v4.3.47",
		"version": "2.0"
	},
	"bufferViews": [
		{
			"buffer": 0,
			"byteLength": 120,
			"byteOffset": 0,
			"target": 34962
		}, 
		{
			"buffer": 0,
			"byteLength": 120,
			"byteOffset": 120,
			"target": 34962
		}, 
		{
			"buffer": 0,
			"byteLength": 40,
			"byteOffset": 240,
			"target": 34962
		}, 
		{
			"buffer": 0,
			"byteLength": 160,
			"byteOffset": 280,
			"target": 34962
		}, 
		{
			"buffer": 0,
			"byteLength": 48,
			"byteOffset": 440,
			"target": 34963
		}, 
		{
			"buffer": 0,
			"byteLength": 128,
			"byteOffset": 488
		}, 
		{
			"buffer": 0,
			"byteLength": 8,
			"byteOffset": 616
		}, 
		{
			"buffer": 0,
			"byteLength": 24,
			"byteOffset": 624
		}, 
		{
			"buffer": 0,
			"byteLength": 32,
			"byteOffset": 648
		}, 
		{
			"buffer": 0,
			"byteLength": 24,
			"byteOffset": 680
		}, 
		{
			"buffer": 0,
			"byteLength": 24,
			"byteOffset": 704
		}, 
		{
			"buffer": 0,
			"byteLength": 532,
			"byteOffset": 728
		}, 
		{
			"buffer": 0,
			"byteLength": 2128,
			"byteOffset": 1260
		}, 
		{
			"buffer": 0,
			"byteLength": 24,
			"byteOffset": 3388
		}
	],
	"buffers": [
		{
			"bin": "rectangle.bin",
			"byteLength": 3412
		}
	],
	"meshes": [
		{
			"name": "Mesh_0",
			"primitives": [
				{
					"attributes": {
						"JOINTS_0": 2,
						"NORMAL": 1,
						"POSITION": 0,
						"WEIGHTS_0": 3
					},
					"indices": 4
				}
			]
		}
	],
	"nodes": [
		{
			"name": "Node_2",
			"rotation": [
				1.31912e-16, 
				1.00255e-23, 
				-3.93128e-24, 
				1
			],
			"translation": [
				-1.05879e-22, 
				1, 
				3.55271e-15
			]
		}, 
		{
			"children": [
				0
			],
			"name": "Node_1",
			"rotation": [
				-8.55714e-09, 
				1.71143e-08, 
				-2.92898e-16, 
				1
			]
		}, 
		{
			"mesh": 0,
			"name": "Mesh_0",
			"skin": 0
		}, 
		{
			"children": [
				2, 
				1
			],
			"name": "Armature"
		}
	],
	"scene": 0,
	"scenes": [
		{
			"name": "Scene",
			"nodes": [
				3
			]
		}
	],
	"skins": [
		{
			"inverseBindMatrices": 5,
			"joints": [
				1, 
				0
			],
			"name": "Armature"
		}
	]
}